<svg width="121" height="84" viewBox="0 0 121 84" fill="none" xmlns="http://www.w3.org/2000/svg">
<g filter="url(#filter0_d_475_1052)">
<rect x="58" y="53" width="3" height="15" fill="#13ED29"/>
<rect x="12" y="8" width="97" height="45" rx="22.5" fill="#13ED29"/>
<path d="M23.315 30.68V27.418C23.6417 27.418 23.9147 27.3363 24.134 27.173C24.3534 27.0097 24.5284 26.7833 24.659 26.494C24.7944 26.2047 24.8994 25.8687 24.974 25.486C25.0487 25.0987 25.107 24.688 25.149 24.254C25.2004 23.68 25.2447 23.1177 25.282 22.567C25.3194 22.0117 25.3544 21.4377 25.387 20.845C25.4244 20.2477 25.4664 19.6013 25.513 18.906L32.086 18.92V27.418H32.842V30.68H31.162V29H25.002V30.68H23.315ZM25.94 27.418H30.399V20.502L27.053 20.488C27.0204 20.978 26.9924 21.4353 26.969 21.86C26.9504 22.28 26.9247 22.707 26.892 23.141C26.864 23.575 26.8244 24.0487 26.773 24.562C26.7264 25.066 26.675 25.486 26.619 25.822C26.5677 26.158 26.4907 26.4497 26.388 26.697C26.2854 26.9397 26.136 27.18 25.94 27.418ZM37.7204 29.21C36.9644 29.21 36.304 29.0397 35.7394 28.699C35.1747 28.3583 34.736 27.8893 34.4234 27.292C34.1154 26.69 33.9614 25.9993 33.9614 25.22C33.9614 24.4267 34.12 23.7313 34.4374 23.134C34.7547 22.5367 35.1957 22.07 35.7604 21.734C36.325 21.398 36.9784 21.23 37.7204 21.23C38.481 21.23 39.1437 21.4003 39.7084 21.741C40.273 22.0817 40.7117 22.553 41.0244 23.155C41.337 23.7523 41.4934 24.4407 41.4934 25.22C41.4934 26.004 41.3347 26.697 41.0174 27.299C40.7047 27.8963 40.266 28.3653 39.7014 28.706C39.1367 29.042 38.4764 29.21 37.7204 29.21ZM37.7204 27.628C38.3924 27.628 38.8917 27.404 39.2184 26.956C39.545 26.508 39.7084 25.9293 39.7084 25.22C39.7084 24.4873 39.5427 23.904 39.2114 23.47C38.88 23.0313 38.383 22.812 37.7204 22.812C37.2677 22.812 36.8944 22.9147 36.6004 23.12C36.311 23.3207 36.0964 23.603 35.9564 23.967C35.8164 24.3263 35.7464 24.744 35.7464 25.22C35.7464 25.9527 35.912 26.5383 36.2434 26.977C36.5794 27.411 37.0717 27.628 37.7204 27.628ZM46.3187 29.21C45.5393 29.21 44.8743 29.0373 44.3237 28.692C43.773 28.342 43.3507 27.866 43.0567 27.264C42.7673 26.662 42.6203 25.9807 42.6157 25.22C42.6203 24.4453 42.772 23.7593 43.0707 23.162C43.374 22.56 43.8033 22.0887 44.3587 21.748C44.914 21.4027 45.5743 21.23 46.3397 21.23C47.1983 21.23 47.924 21.447 48.5167 21.881C49.114 22.3103 49.5037 22.8983 49.6857 23.645L48.0057 24.1C47.875 23.694 47.658 23.379 47.3547 23.155C47.0513 22.9263 46.706 22.812 46.3187 22.812C45.88 22.812 45.5183 22.917 45.2337 23.127C44.949 23.3323 44.739 23.617 44.6037 23.981C44.4683 24.345 44.4007 24.758 44.4007 25.22C44.4007 25.9387 44.5617 26.5197 44.8837 26.963C45.2057 27.4063 45.684 27.628 46.3187 27.628C46.7667 27.628 47.119 27.5253 47.3757 27.32C47.637 27.1147 47.833 26.8183 47.9637 26.431L49.6857 26.816C49.4523 27.586 49.044 28.1787 48.4607 28.594C47.8773 29.0047 47.1633 29.21 46.3187 29.21ZM52.9444 29V22.938H50.4174V21.44H57.1584V22.938H54.6314V29H52.9444ZM60.4211 29.21C59.8751 29.21 59.4131 29.1073 59.0351 28.902C58.6571 28.692 58.3701 28.4143 58.1741 28.069C57.9828 27.7237 57.8871 27.3433 57.8871 26.928C57.8871 26.564 57.9478 26.2373 58.0691 25.948C58.1905 25.654 58.3771 25.402 58.6291 25.192C58.8811 24.9773 59.2078 24.8023 59.6091 24.667C59.9125 24.569 60.2671 24.4803 60.6731 24.401C61.0838 24.3217 61.5271 24.2493 62.0031 24.184C62.4838 24.114 62.9855 24.0393 63.5081 23.96L62.9061 24.303C62.9108 23.7803 62.7941 23.3953 62.5561 23.148C62.3181 22.9007 61.9168 22.777 61.3521 22.777C61.0115 22.777 60.6825 22.8563 60.3651 23.015C60.0478 23.1737 59.8261 23.4467 59.7001 23.834L58.1601 23.351C58.3468 22.7117 58.7015 22.1983 59.2241 21.811C59.7515 21.4237 60.4608 21.23 61.3521 21.23C62.0241 21.23 62.6145 21.3397 63.1231 21.559C63.6365 21.7783 64.0168 22.1377 64.2641 22.637C64.3995 22.903 64.4811 23.176 64.5091 23.456C64.5371 23.7313 64.5511 24.0323 64.5511 24.359V29H63.0741V27.362L63.3191 27.628C62.9785 28.174 62.5795 28.5753 62.1221 28.832C61.6695 29.084 61.1025 29.21 60.4211 29.21ZM60.7571 27.866C61.1398 27.866 61.4665 27.7983 61.7371 27.663C62.0078 27.5277 62.2225 27.362 62.3811 27.166C62.5445 26.97 62.6541 26.7857 62.7101 26.613C62.7988 26.3983 62.8478 26.1533 62.8571 25.878C62.8711 25.598 62.8781 25.3717 62.8781 25.199L63.3961 25.353C62.8875 25.4323 62.4511 25.5023 62.0871 25.563C61.7231 25.6237 61.4105 25.682 61.1491 25.738C60.8878 25.7893 60.6568 25.8477 60.4561 25.913C60.2601 25.983 60.0945 26.0647 59.9591 26.158C59.8238 26.2513 59.7188 26.3587 59.6441 26.48C59.5741 26.6013 59.5391 26.7437 59.5391 26.907C59.5391 27.0937 59.5858 27.2593 59.6791 27.404C59.7725 27.544 59.9078 27.656 60.0851 27.74C60.2671 27.824 60.4911 27.866 60.7571 27.866ZM66.3596 29V21.44H69.7966C70.0439 21.44 70.2749 21.454 70.4896 21.482C70.7042 21.51 70.8886 21.545 71.0426 21.587C71.4066 21.6943 71.7286 21.9043 72.0086 22.217C72.2886 22.525 72.4286 22.952 72.4286 23.498C72.4286 23.82 72.3772 24.086 72.2746 24.296C72.1719 24.5013 72.0366 24.674 71.8686 24.814C71.7892 24.8793 71.7076 24.9353 71.6236 24.982C71.5396 25.0287 71.4556 25.066 71.3716 25.094C71.5536 25.122 71.7262 25.1757 71.8896 25.255C72.1462 25.381 72.3609 25.5677 72.5336 25.815C72.7109 26.0623 72.7996 26.41 72.7996 26.858C72.7996 27.3667 72.6759 27.796 72.4286 28.146C72.1859 28.4913 71.8289 28.7317 71.3576 28.867C71.1849 28.9137 70.9866 28.9487 70.7626 28.972C70.5386 28.9907 70.3099 29 70.0766 29H66.3596ZM68.0676 27.698H69.9576C70.0556 27.698 70.1629 27.6887 70.2796 27.67C70.3962 27.6513 70.5012 27.6257 70.5946 27.593C70.7626 27.5323 70.8839 27.425 70.9586 27.271C71.0379 27.117 71.0776 26.956 71.0776 26.788C71.0776 26.5593 71.0192 26.3773 70.9026 26.242C70.7906 26.102 70.6552 26.0087 70.4966 25.962C70.4032 25.9247 70.3006 25.9037 70.1886 25.899C70.0812 25.8897 69.9926 25.885 69.9226 25.885H68.0676V27.698ZM68.0676 24.562H69.4676C69.6122 24.562 69.7522 24.555 69.8876 24.541C70.0276 24.5223 70.1442 24.492 70.2376 24.45C70.3916 24.3893 70.5036 24.2867 70.5736 24.142C70.6482 23.9973 70.6856 23.8363 70.6856 23.659C70.6856 23.4723 70.6436 23.3043 70.5596 23.155C70.4802 23.001 70.3519 22.8983 70.1746 22.847C70.0579 22.8003 69.9156 22.7747 69.7476 22.77C69.5842 22.7653 69.4792 22.763 69.4326 22.763H68.0676V24.562ZM80.7459 21.44V29H79.1289V24.065L75.5309 29H74.1799V21.44H75.7969V26.249L79.4089 21.44H80.7459ZM84.6084 29V22.938H82.0814V21.44H88.8224V22.938H86.2954V29H84.6084ZM90.1419 29L90.1349 21.44H91.8219V23.96H93.1799C93.3899 23.96 93.6256 23.9647 93.8869 23.974C94.1529 23.9833 94.3746 24.0043 94.5519 24.037C94.9766 24.1303 95.3383 24.2797 95.6369 24.485C95.9403 24.6903 96.1713 24.9587 96.3299 25.29C96.4886 25.6213 96.5679 26.0203 96.5679 26.487C96.5679 27.1543 96.3953 27.6887 96.0499 28.09C95.7093 28.4867 95.2286 28.7573 94.6079 28.902C94.4213 28.944 94.1926 28.972 93.9219 28.986C93.6559 28.9953 93.4156 29 93.2009 29H90.1419ZM91.8219 27.677H93.3479C93.4506 27.677 93.5649 27.6723 93.6909 27.663C93.8169 27.6537 93.9383 27.6327 94.0549 27.6C94.2649 27.544 94.4493 27.418 94.6079 27.222C94.7713 27.0213 94.8529 26.7763 94.8529 26.487C94.8529 26.1837 94.7713 25.934 94.6079 25.738C94.4446 25.542 94.2439 25.4137 94.0059 25.353C93.8986 25.325 93.7866 25.3063 93.6699 25.297C93.5533 25.2877 93.4459 25.283 93.3479 25.283H91.8219V27.677ZM45.8128 43.21C45.0335 43.21 44.3685 43.0373 43.8178 42.692C43.2671 42.342 42.8448 41.866 42.5508 41.264C42.2615 40.662 42.1145 39.9807 42.1098 39.22C42.1145 38.4453 42.2661 37.7593 42.5648 37.162C42.8681 36.56 43.2975 36.0887 43.8528 35.748C44.4081 35.4027 45.0685 35.23 45.8338 35.23C46.6925 35.23 47.4181 35.447 48.0108 35.881C48.6081 36.3103 48.9978 36.8983 49.1798 37.645L47.4998 38.1C47.3691 37.694 47.1521 37.379 46.8488 37.155C46.5455 36.9263 46.2001 36.812 45.8128 36.812C45.3741 36.812 45.0125 36.917 44.7278 37.127C44.4431 37.3323 44.2331 37.617 44.0978 37.981C43.9625 38.345 43.8948 38.758 43.8948 39.22C43.8948 39.9387 44.0558 40.5197 44.3778 40.963C44.6998 41.4063 45.1781 41.628 45.8128 41.628C46.2608 41.628 46.6131 41.5253 46.8698 41.32C47.1311 41.1147 47.3271 40.8183 47.4578 40.431L49.1798 40.816C48.9465 41.586 48.5381 42.1787 47.9548 42.594C47.3715 43.0047 46.6575 43.21 45.8128 43.21ZM57.1835 43.21C56.5815 43.21 56.0379 43.0863 55.5525 42.839C55.0719 42.587 54.6705 42.2277 54.3485 41.761C54.0312 41.2897 53.8235 40.7227 53.7255 40.06H52.2555V43H50.5685V35.44H52.2555V38.38H53.7255C53.8235 37.708 54.0335 37.1387 54.3555 36.672C54.6775 36.2007 55.0835 35.8437 55.5735 35.601C56.0635 35.3537 56.6119 35.23 57.2185 35.23C57.9652 35.23 58.6185 35.4027 59.1785 35.748C59.7385 36.0887 60.1749 36.5577 60.4875 37.155C60.8002 37.7523 60.9565 38.436 60.9565 39.206C60.9565 39.9947 60.7979 40.69 60.4805 41.292C60.1632 41.894 59.7222 42.3653 59.1575 42.706C58.5929 43.042 57.9349 43.21 57.1835 43.21ZM57.1695 41.628C57.8415 41.628 58.3432 41.404 58.6745 40.956C59.0059 40.508 59.1715 39.9293 59.1715 39.22C59.1715 38.478 59.0035 37.8923 58.6675 37.463C58.3362 37.029 57.8369 36.812 57.1695 36.812C56.5069 36.812 56.0145 37.0313 55.6925 37.47C55.3705 37.904 55.2095 38.4827 55.2095 39.206C55.2095 39.948 55.3752 40.5383 55.7065 40.977C56.0379 41.411 56.5255 41.628 57.1695 41.628ZM61.9307 44.68V41.677C62.3414 41.677 62.6331 41.537 62.8057 41.257C62.9784 40.977 63.1161 40.4917 63.2187 39.801C63.2841 39.3903 63.3377 38.9563 63.3797 38.499C63.4217 38.0417 63.4567 37.5587 63.4847 37.05C63.5174 36.5413 63.5454 36.0047 63.5687 35.44H69.1967V41.677H69.9597V44.68H68.3637V43H63.5197V44.68H61.9307ZM64.1917 41.677H67.5167V36.763H65.0457C65.0317 37.043 65.0154 37.33 64.9967 37.624C64.9781 37.9133 64.9571 38.2027 64.9337 38.492C64.9104 38.7813 64.8847 39.059 64.8567 39.325C64.8334 39.5863 64.8054 39.829 64.7727 40.053C64.7214 40.445 64.6584 40.767 64.5837 41.019C64.5091 41.271 64.3784 41.4903 64.1917 41.677ZM73.4778 43.21C72.9318 43.21 72.4698 43.1073 72.0918 42.902C71.7138 42.692 71.4268 42.4143 71.2308 42.069C71.0395 41.7237 70.9438 41.3433 70.9438 40.928C70.9438 40.564 71.0045 40.2373 71.1258 39.948C71.2471 39.654 71.4338 39.402 71.6858 39.192C71.9378 38.9773 72.2645 38.8023 72.6658 38.667C72.9691 38.569 73.3238 38.4803 73.7298 38.401C74.1405 38.3217 74.5838 38.2493 75.0598 38.184C75.5405 38.114 76.0421 38.0393 76.5648 37.96L75.9628 38.303C75.9675 37.7803 75.8508 37.3953 75.6128 37.148C75.3748 36.9007 74.9735 36.777 74.4088 36.777C74.0681 36.777 73.7391 36.8563 73.4218 37.015C73.1045 37.1737 72.8828 37.4467 72.7568 37.834L71.2168 37.351C71.4035 36.7117 71.7581 36.1983 72.2808 35.811C72.8081 35.4237 73.5175 35.23 74.4088 35.23C75.0808 35.23 75.6711 35.3397 76.1798 35.559C76.6931 35.7783 77.0735 36.1377 77.3208 36.637C77.4561 36.903 77.5378 37.176 77.5658 37.456C77.5938 37.7313 77.6078 38.0323 77.6078 38.359V43H76.1308V41.362L76.3758 41.628C76.0351 42.174 75.6361 42.5753 75.1788 42.832C74.7261 43.084 74.1591 43.21 73.4778 43.21ZM73.8138 41.866C74.1965 41.866 74.5231 41.7983 74.7938 41.663C75.0645 41.5277 75.2791 41.362 75.4378 41.166C75.6011 40.97 75.7108 40.7857 75.7668 40.613C75.8555 40.3983 75.9045 40.1533 75.9138 39.878C75.9278 39.598 75.9348 39.3717 75.9348 39.199L76.4528 39.353C75.9441 39.4323 75.5078 39.5023 75.1438 39.563C74.7798 39.6237 74.4671 39.682 74.2058 39.738C73.9445 39.7893 73.7135 39.8477 73.5128 39.913C73.3168 39.983 73.1511 40.0647 73.0158 40.158C72.8805 40.2513 72.7755 40.3587 72.7008 40.48C72.6308 40.6013 72.5958 40.7437 72.5958 40.907C72.5958 41.0937 72.6425 41.2593 72.7358 41.404C72.8291 41.544 72.9645 41.656 73.1418 41.74C73.3238 41.824 73.5478 41.866 73.8138 41.866Z" fill="black"/>
</g>
<defs>
<filter id="filter0_d_475_1052" x="0" y="0" width="122" height="84" filterUnits="userSpaceOnUse" color-interpolation-filters="sRGB">
<feFlood flood-opacity="0" result="BackgroundImageFix"/>
<feColorMatrix in="SourceAlpha" type="matrix" values="0 0 0 0 0 0 0 0 0 0 0 0 0 0 0 0 0 0 127 0" result="hardAlpha"/>
<feOffset dy="4"/>
<feGaussianBlur stdDeviation="6"/>
<feComposite in2="hardAlpha" operator="out"/>
<feColorMatrix type="matrix" values="0 0 0 0 0 0 0 0 0 0 0 0 0 0 0 0 0 0 0.16 0"/>
<feBlend mode="normal" in2="BackgroundImageFix" result="effect1_dropShadow_475_1052"/>
<feBlend mode="normal" in="SourceGraphic" in2="effect1_dropShadow_475_1052" result="shape"/>
</filter>
</defs>
</svg>
