<svg width="1344" height="351" viewBox="0 0 1344 351" fill="none" xmlns="http://www.w3.org/2000/svg">
<path d="M112.419 188.741L253.717 342.931H185.647L74.2586 221.229L56.7254 235.668V342.931H0V0H56.7254V146.455C56.7254 154.19 55.1783 162.441 52.0842 169.66L39.1921 198.539L45.896 201.633L56.7254 177.911C59.8195 170.176 65.492 162.956 71.6802 157.284L156.768 85.6037H234.637L112.419 188.741Z" fill="white"/>
<path d="M538.222 214.525C538.222 221.745 537.706 228.964 536.159 235.668H291.209C302.038 272.797 339.683 300.129 384.548 300.129C413.426 300.129 438.695 288.784 456.744 271.25H523.783C499.546 317.662 446.43 350.15 384.548 350.15C299.976 350.15 231.389 289.299 231.389 214.525C231.389 139.235 299.976 78.3841 384.548 78.3841C461.385 78.3841 524.814 127.89 536.159 192.866C537.706 200.086 538.222 206.79 538.222 214.525ZM310.289 192.866H477.887C467.573 155.737 429.413 128.406 384.548 128.406C342.262 128.406 306.679 152.643 293.272 186.162C292.24 190.288 290.178 193.898 288.115 196.992L277.801 211.947L284.505 216.588L294.303 201.117C297.913 195.96 303.585 192.866 310.289 192.866Z" fill="white"/>
<path d="M646.073 300.129H681.655V350.15H646.073C598.63 350.15 560.469 318.178 560.469 278.47V0H617.194V278.47C617.194 290.331 630.087 300.129 646.073 300.129Z" fill="white"/>
<path d="M906.57 85.6037H962.264L834.374 342.931H773.523L645.634 85.6037H701.328L794.151 272.282C797.761 280.017 799.823 288.784 799.823 297.55V307.348H807.559V297.55C807.559 288.784 809.621 280.017 813.747 272.282L906.57 85.6037Z" fill="white"/>
<path d="M1033.71 342.931H976.981V85.6037H1033.71V342.931ZM1033.71 71.1645H976.981V14.4392H1033.71V71.1645Z" fill="white"/>
<path d="M1222.81 78.3841C1289.85 78.8998 1344 133.562 1344 200.601V342.931H1286.76V200.086C1286.76 160.378 1257.88 128.406 1222.3 128.406C1169.18 128.406 1125.87 167.082 1125.87 214.525V342.931H1069.14V85.6037H1125.87V89.2135C1125.87 97.4645 1124.32 105.2 1121.22 112.419L1108.33 141.298L1115.04 144.392L1125.35 121.702C1131.02 108.81 1141.34 98.4958 1154.23 92.8233C1174.86 83.541 1198.06 78.3841 1222.81 78.3841Z" fill="white"/>
</svg>
