<svg width="32" height="32" viewBox="0 0 32 32" fill="none" xmlns="http://www.w3.org/2000/svg">
<g id="Frame">
<path id="Vector" d="M11.9527 24C11.6292 26.2614 9.6843 28 7.33331 28C4.98233 28 3.03739 26.2614 2.7139 24H1.33331V7.99996C1.33331 7.26359 1.93027 6.66663 2.66665 6.66663H21.3333C22.0697 6.66663 22.6666 7.26359 22.6666 7.99996V10.6666H26.6666L30.6666 16.0742V24H27.9528C27.6292 26.2614 25.6842 28 23.3333 28C20.9824 28 19.0374 26.2614 18.7138 24H11.9527ZM20 9.33329H3.99998V20.0673C4.84699 19.2029 6.02753 18.6666 7.33331 18.6666C9.19491 18.6666 10.8019 19.7566 11.5509 21.3333H19.1157C19.3393 20.8626 19.6394 20.4352 20 20.0673V9.33329ZM22.6666 17.3333H28V16.9533L25.3222 13.3333H22.6666V17.3333ZM23.3333 25.3333C24.2041 25.3333 24.9449 24.7768 25.2194 24C25.2932 23.7914 25.3333 23.567 25.3333 23.3333C25.3333 22.2288 24.4378 21.3333 23.3333 21.3333C22.2288 21.3333 21.3333 22.2288 21.3333 23.3333C21.3333 23.567 21.3734 23.7914 21.4472 24C21.7217 24.7768 22.4625 25.3333 23.3333 25.3333ZM9.33331 23.3333C9.33331 22.2288 8.43789 21.3333 7.33331 21.3333C6.22874 21.3333 5.33331 22.2288 5.33331 23.3333C5.33331 23.567 5.37342 23.7914 5.44711 24C5.72167 24.7768 6.4625 25.3333 7.33331 25.3333C8.20413 25.3333 8.94495 24.7768 9.21951 24C9.29321 23.7914 9.33331 23.567 9.33331 23.3333Z" fill="white"/>
</g>
</svg>
