<svg width="1327" height="346" viewBox="0 0 1327 346" fill="none" xmlns="http://www.w3.org/2000/svg">
<path d="M110.966 186.3L250.436 338.496H183.246L73.2984 218.368L55.9918 232.62V338.496H0V-0.000488281H55.9918V144.56C55.9918 152.195 54.4648 160.34 51.4107 167.466L38.6853 195.971L45.3025 199.025L55.9918 175.61C59.0459 167.975 64.6451 160.849 70.7533 155.25L154.741 84.4963H231.603L110.966 186.3Z" fill="white"/>
<path d="M531.262 211.75C531.262 218.877 530.753 226.003 529.226 232.62H287.443C298.133 269.269 335.291 296.247 379.575 296.247C408.08 296.247 433.022 285.049 450.838 267.742H517.01C493.086 313.554 440.657 345.622 379.575 345.622C296.097 345.622 228.397 285.558 228.397 211.75C228.397 137.434 296.097 77.37 379.575 77.37C455.419 77.37 518.028 126.236 529.226 190.372C530.753 197.498 531.262 204.115 531.262 211.75ZM306.277 190.372H471.707C461.527 153.723 423.86 126.745 379.575 126.745C337.836 126.745 302.714 150.668 289.479 183.755C288.461 187.827 286.425 191.39 284.389 194.444L274.209 209.205L280.826 213.787L290.497 198.516C294.061 193.426 299.66 190.372 306.277 190.372Z" fill="white"/>
<path d="M637.718 296.247H672.84V345.622H637.718C590.889 345.622 553.222 314.063 553.222 274.869V-0.000488281H609.213V274.869C609.213 286.576 621.939 296.247 637.718 296.247Z" fill="white"/>
<path d="M894.847 84.4963H949.821L823.585 338.496H763.521L637.285 84.4963H692.259L783.882 268.76C787.445 276.396 789.481 285.049 789.481 293.702V303.373H797.116V293.702C797.116 285.049 799.152 276.396 803.224 268.76L894.847 84.4963Z" fill="white"/>
<path d="M1020.34 338.496H964.348V84.4963H1020.34V338.496ZM1020.34 70.2438H964.348V14.252H1020.34V70.2438Z" fill="white"/>
<path d="M1207 77.37C1273.17 77.8791 1326.62 131.835 1326.62 198.007V338.496H1270.12V197.498C1270.12 158.304 1241.61 126.745 1206.49 126.745C1154.06 126.745 1111.31 164.921 1111.31 211.75V338.496H1055.31V84.4963H1111.31V88.0594C1111.31 96.2037 1109.78 103.839 1106.73 110.965L1094 139.47L1100.62 142.524L1110.8 120.127C1116.4 107.402 1126.58 97.2217 1139.3 91.6225C1159.66 82.4602 1182.57 77.37 1207 77.37Z" fill="white"/>
</svg>
