<svg width="96" height="32" viewBox="0 0 96 32" fill="none" xmlns="http://www.w3.org/2000/svg">
<path d="M7.52808 16.6389L16.99 26.9641H12.4317L4.97268 18.8144L3.79857 19.7813V26.9641H0V4H3.79857V13.8072C3.79857 14.3252 3.69498 14.8777 3.48778 15.3612L2.62447 17.295L3.07339 17.5022L3.79857 15.9137C4.00577 15.3957 4.38562 14.9123 4.80001 14.5324L10.4979 9.73239H15.7123L7.52808 16.6389Z" fill="white"/>
<path d="M36.0417 18.3655C36.0417 18.849 36.0071 19.3324 35.9035 19.7813H19.5006C20.2258 22.2677 22.7467 24.0979 25.751 24.0979C27.6848 24.0979 29.3769 23.3382 30.5855 22.1641H35.0747C33.4517 25.272 29.8949 27.4476 25.751 27.4476C20.0877 27.4476 15.4948 23.3727 15.4948 18.3655C15.4948 13.3238 20.0877 9.24894 25.751 9.24894C30.8963 9.24894 35.1438 12.5641 35.9035 16.9151C36.0071 17.3986 36.0417 17.8475 36.0417 18.3655ZM20.7783 16.9151H32.0014C31.3107 14.4288 28.7553 12.5986 25.751 12.5986C22.9193 12.5986 20.5366 14.2216 19.6387 16.4662C19.5697 16.7425 19.4315 16.9842 19.2934 17.1914L18.6028 18.1928L19.0517 18.5036L19.7078 17.4677C19.9495 17.1223 20.3294 16.9151 20.7783 16.9151Z" fill="white"/>
<path d="M43.2638 24.0979H45.6465V27.4476H43.2638C40.0868 27.4476 37.5314 25.3065 37.5314 22.6475V4H41.33V22.6475C41.33 23.4418 42.1933 24.0979 43.2638 24.0979Z" fill="white"/>
<path d="M60.7078 9.73239H64.4373L55.8733 26.9641H51.7984L43.2344 9.73239H46.9639L53.1797 22.2331C53.4215 22.7511 53.5596 23.3382 53.5596 23.9252V24.5814H54.0776V23.9252C54.0776 23.3382 54.2157 22.7511 54.492 22.2331L60.7078 9.73239Z" fill="white"/>
<path d="M69.2214 26.9641H65.4229V9.73239H69.2214V26.9641ZM69.2214 8.76548H65.4229V4.96691H69.2214V8.76548Z" fill="white"/>
<path d="M81.8849 9.24894C86.3741 9.28347 90 12.9439 90 17.4331V26.9641H86.1669V17.3986C86.1669 14.7396 84.2331 12.5986 81.8503 12.5986C78.2935 12.5986 75.3928 15.1885 75.3928 18.3655V26.9641H71.5942V9.73239H75.3928V9.97412C75.3928 10.5266 75.2892 11.0446 75.082 11.5281L74.2187 13.4619L74.6676 13.6691L75.3582 12.1497C75.7381 11.2864 76.4287 10.5957 77.2921 10.2158C78.6734 9.59426 80.2273 9.24894 81.8849 9.24894Z" fill="white"/>
</svg>
