<svg width="60" height="40" viewBox="0 0 60 40" fill="none" xmlns="http://www.w3.org/2000/svg">
<path d="M36.1594 8.86304H23.8408V31.1387H36.1594V8.86304Z" fill="#7A7A7A"/>
<path d="M24.624 19.9999C24.622 17.8546 25.1052 15.737 26.0368 13.8073C26.9684 11.8777 28.324 10.1866 30.0011 8.86209C27.9243 7.2194 25.43 6.19784 22.8035 5.91416C20.1769 5.63048 17.5241 6.09613 15.1481 7.2579C12.7721 8.41967 10.7689 10.2307 9.36737 12.4839C7.96587 14.7372 7.22266 17.3417 7.22266 19.9999C7.22266 22.6581 7.96587 25.2627 9.36737 27.5159C10.7689 29.7692 12.7721 31.5802 15.1481 32.7419C17.5241 33.9037 20.1769 34.3694 22.8035 34.0857C25.43 33.802 27.9243 32.7804 30.0011 31.1377C28.324 29.8132 26.9684 28.1221 26.0368 26.1925C25.1052 24.2629 24.6221 22.1452 24.624 19.9999Z" fill="#404040"/>
<path d="M52.7778 19.9999C52.7779 22.6581 52.0347 25.2626 50.6333 27.5159C49.2319 29.7691 47.2287 31.5801 44.8528 32.7419C42.4769 33.9037 39.824 34.3693 37.1975 34.0857C34.571 33.802 32.0768 32.7804 30 31.1377C31.6756 29.8119 33.0302 28.1206 33.9617 26.1912C34.8931 24.2619 35.3771 22.1449 35.3771 19.9999C35.3771 17.855 34.8931 15.738 33.9617 13.8086C33.0302 11.8793 31.6756 10.1879 30 8.86209C32.0768 7.2194 34.571 6.19783 37.1975 5.91416C39.824 5.63048 42.4769 6.09615 44.8528 7.25793C47.2287 8.41971 49.2319 10.2307 50.6333 12.484C52.0347 14.7372 52.7779 17.3418 52.7778 19.9999Z" fill="#B8B8B8"/>
<path d="M51.435 28.7781V28.3221H51.6177V28.2292H51.1523V28.3221H51.3352V28.7781H51.435ZM52.3386 28.7781V28.2283H52.1959L52.0318 28.6065L51.8677 28.2283H51.7249V28.7781H51.8257V28.3634L51.9796 28.721H52.084L52.2379 28.3625V28.7781H52.3386Z" fill="#B8B8B8"/>
</svg>
