<svg width="60" height="40" viewBox="0 0 60 40" fill="none" xmlns="http://www.w3.org/2000/svg">
<path d="M17.8112 15.4931L16.2022 21.1077H15.9269L14.318 15.4931C14.0427 14.543 13.1789 13.8889 12.1917 13.8889H8.33301V26.1111H12.1964V18.8876H12.4717L14.6834 26.1111H17.4457L19.6527 18.8876H19.928V26.1111H23.7914V13.8889H19.9327C18.9503 13.8889 18.0865 14.543 17.8112 15.4931ZM39.2023 26.1111H43.0894V22.497H47.0004C49.046 22.497 50.788 21.3321 51.4618 19.6945H39.2023V26.1111ZM32.3156 15.178L29.596 21.1124H29.3207V13.8889H25.4573V26.1111H28.737C29.6008 26.1111 30.3838 25.6051 30.7446 24.8221L33.4641 18.8924H33.7395V26.1111H37.6028V13.8889H34.3232C33.4594 13.8889 32.6763 14.395 32.3156 15.178Z" fill="white"/>
<path d="M47.3853 13.8889C48.5007 13.8889 49.5116 14.3186 50.2758 15.0252C51.1301 15.8082 51.6663 16.9349 51.6663 18.1906C51.6663 18.4484 51.638 18.7014 51.5953 18.9497H44.4189C41.9888 18.9497 39.929 17.3455 39.2361 15.1302C39.2266 15.1064 39.2218 15.0777 39.2123 15.0491C39.1934 14.9822 39.1791 14.9106 39.1601 14.8438C39.089 14.5334 39.0416 14.2183 39.0225 13.8889H47.3853Z" fill="white"/>
</svg>
