<svg width="34" height="34" viewBox="0 0 34 34" fill="none" xmlns="http://www.w3.org/2000/svg">
<g clip-path="url(#clip0_0_251)">
<path d="M22.9288 19.0707L26.9288 19.0706L26.9288 14.0707L7.92881 14.0706L7.92885 19.0707L10.9288 19.0706L10.9288 17.0707L12.9288 17.0707L12.9288 19.0706L15.9288 19.0706V16.0707H17.9288L17.9288 19.0707L20.9288 19.0707L20.9288 17.0707L22.9289 17.0706L22.9288 19.0707ZM5.92885 20.0707L5.92882 13.0706C5.92884 12.5184 6.37655 12.0707 6.92882 12.0706L27.9288 12.0707C28.4811 12.0706 28.9289 12.5183 28.9288 13.0707L28.9288 20.0706C28.9289 20.6229 28.4811 21.0706 27.9289 21.0706L6.92884 21.0707C6.37658 21.0707 5.92884 20.6229 5.92885 20.0707Z" fill="#13ED29"/>
</g>
<defs>
<clipPath id="clip0_0_251">
<rect width="24" height="24" fill="white" transform="translate(17 33.9702) rotate(-135)"/>
</clipPath>
</defs>
</svg>
