<svg width="60" height="40" viewBox="0 0 60 40" fill="none" xmlns="http://www.w3.org/2000/svg">
<path fill-rule="evenodd" clip-rule="evenodd" d="M33.5156 21.1059C32.2905 20.4897 30.6642 19.4531 30.687 17.5959C30.7051 15.0864 32.9523 13.3333 36.1472 13.3333C37.3927 13.3333 38.3932 13.6135 39.1715 13.9061L38.6034 16.6399C37.1561 15.9518 35.8794 16.0002 35.4169 16.0634C34.4825 16.1886 34.0561 16.6808 34.0453 17.1421C34.0327 17.7533 34.7635 18.1493 35.6415 18.6252C36.9488 19.3337 38.5825 20.2192 38.5746 22.2552C38.5626 24.937 36.3418 26.6666 32.9475 26.6666C31.5014 26.6529 30.1069 26.3405 29.3538 25.9822L29.9388 23.1566L30 23.1862C30.7409 23.5441 31.6774 23.9965 33.2574 23.9712C34.1882 23.9563 35.1827 23.5744 35.1923 22.709C35.1971 22.1436 34.7744 21.7382 33.5156 21.1059ZM44.6306 13.5685C44.0109 13.5685 43.4884 13.9417 43.2554 14.5145L38.4066 26.4654H41.7985L42.4735 24.54H46.6184L47.01 26.4654H49.9995L47.3907 13.5685H44.6306ZM45.105 17.0525L46.0839 21.8954H43.4031L45.105 17.0525ZM26.575 13.569L23.9014 26.4659H27.1335L29.8059 13.569H26.575ZM18.428 22.3471L21.7923 13.569H25.1866L19.9498 26.4659H16.5339L13.9564 16.1739C13.8002 15.5404 13.6645 15.3073 13.1889 15.0407C12.4118 14.6043 11.129 14.1964 10 13.9434L10.0769 13.569H15.5767C16.2769 13.569 16.9075 14.0501 17.0672 14.8833L18.428 22.3471Z" fill="white"/>
</svg>
