<svg width="14" height="14" viewBox="0 0 14 14" fill="none" xmlns="http://www.w3.org/2000/svg">
<path d="M0.944785 13.0554C1.09384 13.2044 1.27084 13.3069 1.47579 13.3627C1.68695 13.4124 1.895 13.4124 2.09995 13.3627C2.31111 13.3069 2.49122 13.2075 2.64027 13.0647L7.0001 8.69717L11.3692 13.0554C11.5183 13.2106 11.6922 13.3131 11.8909 13.3627C12.0959 13.4124 12.3008 13.4124 12.5058 13.3627C12.7169 13.3069 12.897 13.2013 13.0461 13.0461C13.2076 12.8971 13.3131 12.7202 13.3628 12.5153C13.4125 12.3042 13.4125 12.0962 13.3628 11.8914C13.3131 11.6865 13.2107 11.5095 13.0554 11.3605L8.7049 6.99299L13.0554 2.63475C13.2107 2.48575 13.3131 2.30882 13.3628 2.10394C13.4125 1.89907 13.4125 1.69419 13.3628 1.48932C13.3131 1.27823 13.2076 1.09819 13.0461 0.949193C12.897 0.793986 12.7169 0.691548 12.5058 0.641882C12.3008 0.586007 12.0959 0.586007 11.8909 0.641882C11.6922 0.691548 11.5183 0.790881 11.3692 0.939881L7.0001 5.29812L2.64027 0.930569C2.49122 0.787777 2.31111 0.691548 2.09995 0.641882C1.895 0.586007 1.68695 0.586007 1.47579 0.641882C1.27084 0.691548 1.09384 0.790881 0.944785 0.939881C0.78952 1.09509 0.687046 1.27823 0.637361 1.48932C0.587676 1.69419 0.587676 1.89907 0.637361 2.10394C0.687046 2.30882 0.786415 2.48575 0.935469 2.63475L5.30461 6.99299L0.935469 11.3605C0.786415 11.5095 0.687046 11.6865 0.637361 11.8914C0.587676 12.0962 0.587676 12.3042 0.637361 12.5153C0.687046 12.7202 0.78952 12.9002 0.944785 13.0554Z" fill="#8E8E93"/>
</svg>
